<svg xmlns="http://www.w3.org/2000/svg" viewBox="0 0 669.01 142.93"><defs><style>.cls-1{fill:#848484;}.cls-2{font-size:90.87px;}.cls-2,.cls-4{fill:#353535;font-family:CenturyGothic-Bold, Century Gothic;font-weight:700;}.cls-3{font-size:52px;}.cls-4{font-size:87.87px;}</style></defs><g id="Layer_2" data-name="Layer 2"><g id="OBJECTS"><path class="cls-1" d="M86,111.61a12.63,12.63,0,0,1-3.21,9,11.85,11.85,0,0,1-16.31.29,33.43,33.43,0,0,1-9.12,16.74l-.63.6a32.34,32.34,0,0,0,17.57,4.64q14,0,22.64-8.68t8.68-22.64V85.79H86Z"/><path class="cls-1" d="M97,8.68Q88.31,0,74.34,0A32.34,32.34,0,0,0,56.77,4.64c.21.2.43.39.63.6A33.38,33.38,0,0,1,66.52,22a10.94,10.94,0,0,1,8-3.11,10.88,10.88,0,0,1,8.3,3.4A12.63,12.63,0,0,1,86,31.32V57.14h19.62V31.32Q105.66,17.36,97,8.68Z"/><path d="M62.64,57.14V31.32q0-14-8.68-22.64T31.32,0q-14,0-22.64,8.68T0,31.32v80.29q0,14,8.68,22.64t22.64,8.68q14,0,22.64-8.68t8.68-22.64V85.79H43v25.82a12.63,12.63,0,0,1-3.21,9,10.88,10.88,0,0,1-8.3,3.4,10.88,10.88,0,0,1-8.3-3.4,12.63,12.63,0,0,1-3.21-9V31.32a12.63,12.63,0,0,1,3.21-9,10.88,10.88,0,0,1,8.3-3.4,10.88,10.88,0,0,1,8.3,3.4A12.63,12.63,0,0,1,43,31.32V57.14Z"/><text class="cls-2" transform="translate(133.28 103.79)">Cairo<tspan class="cls-3" x="239.85" y="0"> </tspan><tspan x="254.4" y="0">Coin</tspan></text><path d="M35.38,15.34c3.22,0,3.23-5,0-5s-3.22,5,0,5Z"/><text class="cls-4" transform="translate(591.7 75.48)">+</text></g></g></svg>